<svg width="425" height="617" viewBox="0 0 425 617" fill="none" xmlns="http://www.w3.org/2000/svg">
<path d="M152.062 0H11.9023C6.37945 0 1.9023 4.47715 1.9023 10V200.5C1.9023 206.023 6.37945 210.5 11.9023 210.5H119.402C124.925 210.5 129.402 206.023 129.402 200.5V144.229C129.402 135.528 139.744 130.978 146.159 136.857L324.725 300.506C329.098 304.514 329.042 311.424 324.605 315.36L146.038 473.745C139.587 479.467 129.402 474.887 129.402 466.263V406C129.402 400.477 124.925 396 119.402 396H11.9023C6.37945 396 1.9023 400.477 1.9023 406V606.5C1.9023 612.023 6.37945 616.5 11.9023 616.5H151.793C153.818 616.5 155.795 615.885 157.463 614.737L420.072 433.98C422.783 432.115 424.402 429.034 424.402 425.743V172.076C424.402 168.61 422.607 165.391 419.658 163.569L157.318 1.49264C155.739 0.516841 153.919 0 152.062 0Z" fill="url(#paint0_linear_55_35)"/>
<path fill-rule="evenodd" clip-rule="evenodd" d="M49.4626 261.445C44.253 262.568 35.5323 265.553 30.082 268.078C19.2953 273.077 -0.0783821 290.271 0.000238553 294.775C0.100269 300.506 23.2207 301.635 46.0073 297.024C57.2438 294.751 61.0736 294.79 66.2712 297.232C75.8349 301.726 77.8719 309.254 71.3539 316.004C66.5707 320.957 64.3325 321.466 47.317 321.466C32.2881 321.465 26.378 322.494 17.6122 326.634L6.66659 331.798L12.0462 337.328C15.0048 340.369 23.5124 345.766 30.9519 349.324C48.0085 357.478 69.2212 357.836 90.8089 350.329C110.241 343.572 128.714 330.665 128.597 323.926C128.528 320.01 118.167 316.312 107.574 316.423L98.131 316.521L105.632 309.459C112.592 302.907 113.962 302.489 124.632 303.669C159.141 307.48 160.488 307.401 166.963 301.178C176.712 291.808 174.955 289 158.872 288.247C147.418 287.712 139.828 285.279 117.864 275.098C83.843 259.328 71.0887 256.782 49.4626 261.445ZM193.941 294.64C188.799 297.082 178.698 303.395 171.492 308.669C161.713 315.822 156.026 318.389 149.082 318.777C137.864 319.405 137.423 321.334 147.191 327.057C161.38 335.371 178.121 331.214 198.925 314.204C203.642 310.346 212.656 305.407 218.958 303.225L230.412 299.257L222.465 294.589C212.718 288.862 206.074 288.873 193.941 294.64Z" fill="url(#paint1_linear_55_35)"/>
<defs>
<linearGradient id="paint0_linear_55_35" x1="212.201" y1="0" x2="212.201" y2="616.5" gradientUnits="userSpaceOnUse">
<stop stop-color="#DC2626"/>
<stop offset="1" stop-color="#EA580C"/>
</linearGradient>
<linearGradient id="paint1_linear_55_35" x1="114.534" y1="258.51" x2="116.214" y2="354.75" gradientUnits="userSpaceOnUse">
<stop stop-color="#DC2626"/>
<stop offset="1" stop-color="#EA580C"/>
</linearGradient>
</defs>
</svg>
